<svg id="Group_79" data-name="Group 79" xmlns="http://www.w3.org/2000/svg" xmlns:xlink="http://www.w3.org/1999/xlink" width="199.983" height="200.821" viewBox="0 0 199.983 200.821">
  <defs>
    <clipPath id="clip-path">
      <path id="Path_144" data-name="Path 144" d="M2064.007,1899.479h0c54.994,0,99.991-45.186,99.991-100.41h0c0-55.227-45-100.411-99.991-100.411h0c-55,0-99.991,45.184-99.991,100.411h0C1964.016,1854.293,2009.011,1899.479,2064.007,1899.479Z" transform="translate(-1964.016 -1698.658)" fill="none"/>
    </clipPath>
  </defs>
  <g id="Group_76" data-name="Group 76">
    <path id="Path_143" data-name="Path 143" d="M2064.007,1899.479h0c54.994,0,99.991-45.186,99.991-100.41h0c0-55.227-45-100.411-99.991-100.411h0c-55,0-99.991,45.184-99.991,100.411h0C1964.016,1854.293,2009.011,1899.479,2064.007,1899.479Z" transform="translate(-1964.016 -1698.658)" fill="#29acad"/>
    <g id="Group_71" data-name="Group 71">
      <g id="Group_70" data-name="Group 70" clip-path="url(#clip-path)">
        <rect id="Rectangle_29" data-name="Rectangle 29" width="36.503" height="71.526" transform="translate(81.058 142.905)" fill="#f09d7e"/>
        <rect id="Rectangle_30" data-name="Rectangle 30" width="149.987" height="63.594" transform="translate(22.254 179.385)" fill="#eb5e5e"/>
      </g>
    </g>
    <g id="Group_75" data-name="Group 75" transform="translate(35.285 37.044)">
      <g id="Group_74" data-name="Group 74">
        <circle id="Ellipse_21" data-name="Ellipse 21" cx="15.312" cy="15.312" r="15.312" transform="translate(0 48.191)" fill="#e39a7f"/>
        <circle id="Ellipse_22" data-name="Ellipse 22" cx="15.312" cy="15.312" r="15.312" transform="translate(97.345 48.191)" fill="#e39a7f"/>
        <path id="Path_145" data-name="Path 145" d="M2094.819,1771.549l-.112,38.141c-.44,28.3-34.567,38.879-50.475,38.75-15.893-.13-50.206-11.342-50.106-39.119l.114-38.139a50.29,50.29,0,1,1,100.579.367Z" transform="translate(-1980.461 -1721.076)" fill="#ffb59c"/>
        <g id="Group_72" data-name="Group 72" transform="translate(39.158 54.238)">
          <path id="Path_146" data-name="Path 146" d="M2020.709,1760.246a5.369,5.369,0,0,1-5.364,5.365,5.136,5.136,0,0,1-2.23-.5,5.336,5.336,0,0,1-2.81-3.138,5.146,5.146,0,0,1-.3-1.745,5.358,5.358,0,0,1,5.35-5.366,5.266,5.266,0,0,1,2.016.4,5.352,5.352,0,0,1,3.208,3.732A6.212,6.212,0,0,1,2020.709,1760.246Z" transform="translate(-2010.008 -1754.866)"/>
        </g>
        <g id="Group_73" data-name="Group 73" transform="translate(77.461 54.238)">
          <path id="Path_147" data-name="Path 147" d="M2044.572,1760.246a5.369,5.369,0,0,1-5.364,5.365,5.135,5.135,0,0,1-2.23-.5,5.336,5.336,0,0,1-2.81-3.138,5.1,5.1,0,0,1-.3-1.745,5.358,5.358,0,0,1,5.35-5.366,5.266,5.266,0,0,1,2.016.4,5.357,5.357,0,0,1,3.209,3.732A6.23,6.23,0,0,1,2044.572,1760.246Z" transform="translate(-2033.871 -1754.866)"/>
        </g>
        <path id="Rectangle_31" data-name="Rectangle 31" d="M1.934,0H4.276A1.935,1.935,0,0,1,6.211,1.935V17.759a1.934,1.934,0,0,1-1.934,1.934H1.935A1.935,1.935,0,0,1,0,17.758V1.934A1.934,1.934,0,0,1,1.934,0Z" transform="translate(74.801 43.408) rotate(-76.576)" fill="#7d4510"/>
        <rect id="Rectangle_32" data-name="Rectangle 32" width="19.694" height="6.21" rx="1.934" transform="matrix(0.975, -0.221, 0.221, 0.975, 32.707, 41.813)" fill="#7d4510"/>
        <rect id="Rectangle_33" data-name="Rectangle 33" width="10.677" height="16.503" rx="2.675" transform="translate(58.027 62.144)" fill="#ffc3ad"/>
      </g>
      <path id="Path_148" data-name="Path 148" d="M2046.906,1779.824a24.269,24.269,0,0,1-15.167,5.777,26.168,26.168,0,0,1-16.905-6.318" transform="translate(-1967.929 -1685.853)" fill="none" stroke="#e87464" stroke-linecap="round" stroke-linejoin="round" stroke-width="5"/>
    </g>
    <path id="Path_149" data-name="Path 149" d="M1994.126,1725.618v58.008a25.088,25.088,0,0,0,6.676-10.235c1.515-4.788-3.5-29.062,17.183-30.319,10.692-.644,15.223,3.045,18.911,6.732,3.316,3.318,10.636,4.5,15.138,0,3.689-3.687,8.219-7.375,18.913-6.732,20.684,1.257,15.666,25.517,17.181,30.319a25.328,25.328,0,0,0,6.676,10.235v-58.008a8.522,8.522,0,0,0-8.518-8.52h-83.669A8.517,8.517,0,0,0,1994.126,1725.618Z" transform="translate(-1945.172 -1687.499)" fill="#7d4510"/>
  </g>
</svg>
