<svg xmlns="http://www.w3.org/2000/svg" width="42.533" height="48.5" viewBox="0 0 42.533 48.5">
  <g id="Group_143" data-name="Group 143" transform="translate(-937.614 -514.146)">
    <g id="Group_138" data-name="Group 138" transform="translate(939.114 515.646)">
      <path id="path21118" d="M451.271,67.1V64.69a3.563,3.563,0,0,1,3.4-3.719h0a3.563,3.563,0,0,1,3.4,3.719V67.1" transform="translate(-434.906 -60.971)" fill="none" stroke="#7bead4" stroke-linecap="round" stroke-width="3"/>
      <path id="path21120" d="M455.775,181.023a5.366,5.366,0,0,1,.053.755h0a5.362,5.362,0,1,1-10.67-.755" transform="translate(-430.7 -142.14)" fill="none" stroke="#7bead4" stroke-linecap="round" stroke-width="4"/>
      <path id="path21122" d="M419.559,78.954c-7.456,0-13.458,5.725-13.458,12.836-.183,8.737.609,14.486-6.033,18.4a.612.612,0,0,0-.275.477v.74h39.533v-.74a.613.613,0,0,0-.275-.477c-6.642-3.915-5.85-9.664-6.033-18.4C433.017,84.679,427.015,78.954,419.559,78.954Z" transform="translate(-399.793 -73.237)" fill="none" stroke="#1f1717" stroke-linecap="round" stroke-width="3"/>
      <path id="path21124" d="M434.549,100.888a6.934,6.934,0,0,1,6.934-6.934" transform="translate(-423.5 -83.468)" fill="none" stroke="#7bead4" stroke-linecap="round" stroke-width="2"/>
    </g>
  </g>
</svg>
